<svg id="Capa_1" data-name="Capa 1" xmlns="http://www.w3.org/2000/svg" xmlns:xlink="http://www.w3.org/1999/xlink" viewBox="0 0 283.46 233.77"><defs><style>.cls-1{fill:#ab002f;}.cls-2{fill:url(#linear-gradient);}.cls-3{fill:url(#linear-gradient-2);}.cls-4{fill:url(#linear-gradient-3);}.cls-5{fill:url(#linear-gradient-4);}.cls-6{fill:url(#linear-gradient-5);}.cls-7{fill:url(#linear-gradient-6);}.cls-8{fill:url(#linear-gradient-7);}.cls-9{fill:url(#linear-gradient-8);}.cls-10{fill:#2d2f34;}.cls-11{fill:url(#linear-gradient-9);}.cls-12{fill:url(#linear-gradient-10);}.cls-13{fill:url(#linear-gradient-11);}.cls-14{fill:url(#linear-gradient-12);}</style><linearGradient id="linear-gradient" x1="295.49" y1="448.58" x2="295.49" y2="357.93" gradientUnits="userSpaceOnUse"><stop offset="0" stop-color="#f0f3f5"/><stop offset="0.06" stop-color="#e2e5e8"/><stop offset="0.14" stop-color="#d4d8dd"/><stop offset="0.24" stop-color="#ccd0d6"/><stop offset="0.44" stop-color="#caced4"/><stop offset="0.57" stop-color="#b3b7bd"/><stop offset="0.84" stop-color="#797c83"/><stop offset="1" stop-color="#52545c"/></linearGradient><linearGradient id="linear-gradient-2" x1="295.5" y1="379.51" x2="295.5" y2="330.38" xlink:href="#linear-gradient"/><linearGradient id="linear-gradient-3" x1="311.8" y1="370.48" x2="281.13" y2="344.74" xlink:href="#linear-gradient"/><linearGradient id="linear-gradient-4" x1="314.92" y1="413.29" x2="270.2" y2="387.47" xlink:href="#linear-gradient"/><linearGradient id="linear-gradient-5" x1="279.8" y1="306.32" x2="279.8" y2="384.23" xlink:href="#linear-gradient"/><linearGradient id="linear-gradient-6" x1="311.18" y1="306.32" x2="311.18" y2="384.23" xlink:href="#linear-gradient"/><linearGradient id="linear-gradient-7" x1="312.13" y1="305.66" x2="312.13" y2="435.7" xlink:href="#linear-gradient"/><linearGradient id="linear-gradient-8" x1="278.85" y1="305.66" x2="278.85" y2="435.7" xlink:href="#linear-gradient"/><linearGradient id="linear-gradient-9" x1="295.49" y1="306.33" x2="295.49" y2="465.44" gradientUnits="userSpaceOnUse"><stop offset="0" stop-color="#f0f3f5"/><stop offset="0.25" stop-color="#edf0f3"/><stop offset="0.41" stop-color="#e5e8ea"/><stop offset="0.53" stop-color="#d7dadc"/><stop offset="0.64" stop-color="#c3c5c9"/><stop offset="0.74" stop-color="#a9abaf"/><stop offset="0.84" stop-color="#888b90"/><stop offset="0.93" stop-color="#63656b"/><stop offset="1" stop-color="#3d3f46"/></linearGradient><linearGradient id="linear-gradient-10" x1="295.5" y1="306.32" x2="295.5" y2="465.44" xlink:href="#linear-gradient-9"/><linearGradient id="linear-gradient-11" x1="295.49" y1="306.33" x2="295.49" y2="465.45" xlink:href="#linear-gradient-9"/><linearGradient id="linear-gradient-12" x1="295.49" y1="339.32" x2="295.49" y2="384.67" gradientUnits="userSpaceOnUse"><stop offset="0" stop-color="#caced4"/><stop offset="1" stop-color="#52545c"/></linearGradient></defs><title>Toyota [Converted]</title><path class="cls-1" d="M298,512.86a25.14,25.14,0,0,1,25.24-25.22c13.69,0,24.94,11.27,25.22,25.22a25.79,25.79,0,0,1-25.22,25.23A25.36,25.36,0,0,1,298,512.86Zm25.24,15.94c7.58-.12,13.85-7.24,13.93-15.94-.08-8.87-6.35-16-13.93-15.94-7.91-.05-14.2,7.07-14,15.94-.25,8.7,6,15.82,14,15.94" transform="translate(-156.6 -304.32)"/><polyline class="cls-1" points="220.39 193.93 220.39 232.44 209.78 232.44 209.78 193.93 194.5 193.93 194.5 185.31 235 185.31 235 193.93 220.39 193.93"/><path class="cls-1" d="M404.2,526.13h0l-4,10.63H387.62l19.92-47.13H420.8l19.26,47.13h-12.6l-4-10.63Zm10-8h6.62l-6.62-17.26-6.64,17.26h6.64" transform="translate(-156.6 -304.32)"/><polyline class="cls-1" points="25.22 193.93 25.22 232.44 14.6 232.44 14.6 193.93 0 193.93 0 185.31 39.83 185.31 39.83 193.93 25.22 193.93"/><path class="cls-1" d="M199.09,512.86a25.22,25.22,0,1,1,50.44,0,25.68,25.68,0,0,1-25.23,25.23,25.43,25.43,0,0,1-25.21-25.23ZM224.3,528.8c7.67-.12,13.94-7.24,13.94-15.94,0-8.87-6.27-16-13.94-15.94-7.83-.05-14.11,7.07-13.92,15.94-.19,8.7,6.09,15.82,13.92,15.94" transform="translate(-156.6 -304.32)"/><polyline class="cls-1" points="116.83 232.44 122.14 232.44 122.14 214.51 140.73 185.31 128.79 185.31 116.83 205.22 105.55 185.31 92.94 185.31 111.53 214.51 111.53 232.44 116.83 232.44"/><path d="M165.14,385.88c0,45,58.48,81.56,130.35,81.56s130.35-36.59,130.35-81.56-58.47-81.56-130.35-81.56S165.14,340.91,165.14,385.88Zm4,0c0-42.76,56.68-77.55,126.35-77.55s126.35,34.79,126.35,77.55-56.68,77.56-126.35,77.56S169.14,428.66,169.14,385.88Z" transform="translate(-156.6 -304.32)"/><path d="M283.18,319.15c-30.51,1.86-52.67,10-56.45,20.6a10,10,0,0,0-.58,3.34,10.54,10.54,0,0,0,1.51,5.32c4.24,7.21,17.38,13.16,36.08,16.35l2,.33.34-2c3.07-18.73,9.81-33.45,18.49-40.41l4.92-3.94Zm-52.06,27.24a6.37,6.37,0,0,1-1-3.28,6,6,0,0,1,.36-2h0C233.39,333,253,325.84,278,323.55c-7.14,8.08-12.62,21.08-15.49,36.89C246.24,357.43,234.55,352.25,231.12,346.39Zm-4.39-6.64Z" transform="translate(-156.6 -304.32)"/><path d="M277.6,364.31l-.39,2.17,2.21.17c5.23.39,10.64.6,16.07.6s10.85-.21,16.08-.6l2.21-.17-.4-2.17c-3-16.9-9.7-27-17.89-27S280.61,347.41,277.6,364.31Zm17.89-23c5.6,0,10.77,8.39,13.49,21.47-4.42.29-8.93.47-13.49.47s-9.06-.18-13.48-.47C284.72,349.7,289.9,341.31,295.49,341.31Z" transform="translate(-156.6 -304.32)"/><path d="M306.43,322.7c8.69,7,15.43,21.68,18.5,40.41l.33,2,2-.33c18.71-3.19,31.86-9.14,36.08-16.35a10,10,0,0,0,.93-8.66c-3.77-10.65-25.93-18.74-56.44-20.6l-6.29-.39Zm6.58.85c25,2.29,44.59,9.42,47.47,17.54a5.75,5.75,0,0,1,.36,2,6.53,6.53,0,0,1-1,3.28c-3.45,5.86-15.14,11-31.39,14.05C325.62,344.63,320.14,331.63,313,323.55Z" transform="translate(-156.6 -304.32)"/><path d="M207.43,347.6c-13.71,11.49-21,25.13-21,39.47,0,33.72,41.12,62.22,95.65,66.28l6.09.46-4.64-4c-11.95-10.22-19.36-34.46-19.36-63.28l.12-6.81-1.67-.34c-28.68-5.14-49.08-17.2-52-30.7l-.69-3.24Zm-17,39.47c0-12.3,6-24.09,17.25-34.34,5.25,13.65,24.84,25,52.55,30.3,0,1.56-.07,3.54-.07,3.54,0,26.72,6.34,49.79,16.8,62.24C227.33,443.51,190.48,417.56,190.48,387.07Z" transform="translate(-156.6 -304.32)"/><path d="M276,383.46v.73c0,26.78,8.4,47,19.53,47S315,411,315,384.19l0-2.89-2.15.18c-5.66.5-11.5.74-17.36.74s-11.7-.24-17.34-.74l-2.16-.19Zm35,2.15c-.3,24.92-8.15,41.57-15.51,41.57s-15.21-16.65-15.5-41.57c5.08.37,10.28.61,15.5.61S305.91,386,311,385.61Z" transform="translate(-156.6 -304.32)"/><path d="M380.31,348.72c-2.9,13.5-23.31,25.56-52,30.7l-1.68.32.13,6.83c0,28.82-7.42,53.06-19.36,63.28l-4.64,4,6.09-.46c54.52-4.06,95.65-32.56,95.65-66.28,0-14.34-7.26-28-21-39.47L381,345.48Zm2.94,4c11.27,10.25,17.27,22,17.27,34.34,0,30.49-36.85,56.44-86.54,61.74,10.46-12.45,16.8-35.52,16.8-62.24,0,0,0-2-.07-3.54C358.41,377.74,378,366.38,383.25,352.73Z" transform="translate(-156.6 -304.32)"/><path class="cls-2" d="M381.73,338.42c.18.51.35,1,.48,1.55a15.24,15.24,0,0,1-.38,8.8c13,10.73,20.68,24,20.68,38.3,0,35.78-47.92,64.79-107,64.79s-107-29-107-64.79c0-14.33,7.68-27.57,20.67-38.3a15.23,15.23,0,0,1-.37-8.8,9.33,9.33,0,0,1,.62-1.65c-17.75,12.64-28.51,29.22-28.51,47.37,0,39.63,51.3,71.75,114.6,71.75S410.1,425.32,410.1,385.69C410.1,367.58,399.38,351,381.73,338.42Z" transform="translate(-156.6 -304.32)"/><path class="cls-3" d="M311.42,364.66c-5.05.38-10.38.58-15.93.58s-10.87-.2-15.92-.58h0l-3.3,2.4c6.09.53,12.52.83,19.23.83s13.15-.3,19.25-.83l-3.32-2.4ZM370,339.52c-4-13.3-37.19-23.07-74.47-23.07s-70.43,9.77-74.45,23.07c-3.49,11.53,15.57,22.21,45.64,26.44l-2.61-3.18h0c-24.33-4.14-38.79-13-35.45-22.35,4-11.4,33.41-19.65,66.87-19.65s62.84,8.25,66.88,19.65c3.33,9.38-11.12,18.21-35.46,22.35h0l-2.6,3.18C354.37,361.73,373.45,351.05,370,339.52Z" transform="translate(-156.6 -304.32)"/><path class="cls-4" d="M279.61,364.66c2.79-15.52,8.85-25.22,15.88-25.22s13.09,9.7,15.89,25.22h.05L314.7,367c-2.76-20.5-10.32-33.6-19.21-33.6S279,346.53,276.29,367l3.27-2.37Z" transform="translate(-156.6 -304.32)"/><path class="cls-5" d="M315.69,378.64,313,383.47h0c0,.36,0,.72,0,1.08,0,25.73-7.86,45.24-17.54,45.24S278,410.28,278,384.55c0-.4,0-.8,0-1.19l-2.68-4.72c-.07,1.93-.11,3.88-.11,5.89,0,29.16,9.09,51.26,20.31,51.26s20.33-22.1,20.33-51.26C315.82,382.52,315.77,380.57,315.69,378.64Z" transform="translate(-156.6 -304.32)"/><path class="cls-6" d="M266.72,366c3.85-28.48,15.27-49.52,28.77-49.52-14.47,0-26.8,18.64-31.38,46.39l2.58,3.13Z" transform="translate(-156.6 -304.32)"/><path class="cls-7" d="M324.27,366h0l2.58-3.13c-4.57-27.75-16.91-46.39-31.38-46.39C309,316.45,320.43,337.49,324.27,366Z" transform="translate(-156.6 -304.32)"/><path class="cls-8" d="M328.67,381.38l-3.28-3.92h0c.18,3.11.29,6.28.29,9.49,0,38.93-13.5,70.49-30.16,70.49,18.68,0,33.29-29.27,33.29-70.49C328.78,385.06,328.74,383.21,328.67,381.38Z" transform="translate(-156.6 -304.32)"/><path class="cls-9" d="M265.35,387c0-3.21.1-6.38.28-9.49h0l-3.29,3.9c-.07,1.85-.11,3.7-.11,5.59,0,41.22,14.62,70.49,33.28,70.49C278.85,457.44,265.35,425.88,265.35,387Z" transform="translate(-156.6 -304.32)"/><path class="cls-10" d="M381.83,348.77a66.37,66.37,0,0,1,12.45,13.34,45.75,45.75,0,0,0-8.75-20.82c-1.24-1-2.5-2-3.8-2.87.18.51.35,1,.48,1.55A15.24,15.24,0,0,1,381.83,348.77Z" transform="translate(-156.6 -304.32)"/><path class="cls-10" d="M209.15,348.77a15.23,15.23,0,0,1-.37-8.8,9.33,9.33,0,0,1,.62-1.65q-2,1.46-3.94,3a46,46,0,0,0-8.75,20.82A66.31,66.31,0,0,1,209.15,348.77Z" transform="translate(-156.6 -304.32)"/><path class="cls-11" d="M167.14,385.88c0-43.93,57.46-79.55,128.35-79.55S423.84,342,423.84,385.88s-57.46,79.56-128.35,79.56S167.14,429.83,167.14,385.88Zm128.35,71.56c63.3,0,114.61-32.12,114.61-71.75s-51.31-71.77-114.61-71.77-114.61,32.13-114.61,71.77S232.19,457.44,295.49,457.44Z" transform="translate(-156.6 -304.32)"/><path class="cls-12" d="M265.35,387c0-38.53,13.5-70.5,30.14-70.5s30.16,32,30.16,70.5c0,38.93-13.5,70.49-30.16,70.49S265.35,425.88,265.35,387Zm30.14,48.84c11.23,0,20.33-22.1,20.33-51.25,0-30.26-9.1-51.11-20.33-51.11s-20.31,20.85-20.31,51.11C275.18,413.69,284.27,435.79,295.49,435.79Z" transform="translate(-156.6 -304.32)"/><path class="cls-13" d="M208.78,340c3.31-13.1,43.31-32.16,86.71-32.16s82,13.62,86.72,32.16c5.25,20.78-33.31,39.59-86.72,39.59S203.52,360.75,208.78,340Zm86.71-23.52c-37.27,0-70.43,9.77-74.45,23.07-4.51,14.89,28.59,28.37,74.45,28.37s79-13.48,74.47-28.37C365.93,326.22,332.77,316.45,295.49,316.45Z" transform="translate(-156.6 -304.32)"/><path class="cls-14" d="M275.26,378.6l0,0,2.75,4.85c5.61.48,11.44.76,17.46.76s11.9-.28,17.54-.77l2.68-4.84,0,0c-6.45.62-13.2,1-20.24,1S281.7,379.22,275.26,378.6Zm107.4-34.14c-.68,14.86-23.52,28-57.28,33h0l3.29,3.93C361.71,375.45,383.45,360.87,382.66,344.46Zm-174.34,0c-.78,16.42,21,31,54,36.93l3.3-3.93h0C231.84,372.49,209,359.32,208.32,344.46Z" transform="translate(-156.6 -304.32)"/></svg>